<?xml version="1.0" encoding="utf-8"?>
<!-- Generator: Adobe Illustrator 21.0.0, SVG Export Plug-In . SVG Version: 6.00 Build 0)  -->
<svg version="1.1" id="Layer_1" xmlns="http://www.w3.org/2000/svg" xmlns:xlink="http://www.w3.org/1999/xlink" x="0px" y="0px"
	 viewBox="0 0 267.8 50" style="enable-background:new 0 0 267.8 50;" xml:space="preserve">
<style type="text/css">
	.st0{display:none;}
	.st1{display:inline;fill:#FFFFFF;}
	.st2{display:inline;}
	.st3{fill:#FFFFFF;}
	.st4{display:inline;fill:#FFFFFF;}
	.st5{fill:#FFFFFF;}
</style>
<g id="Layer_2" class="st0">
	<rect x="-0.1" y="-0.2" class="st1" width="52.7" height="50.2"/>
</g>
<g id="Layer_1_1_" class="st0">
	<g class="st2">
		<path class="st3" d="M0.2,18.9c0,0,5-4.1,9.7,2.4C9.9,21.3,4.9,24.5,0.2,18.9"/>
		<path class="st3" d="M27,14.2C27.6,11.5,30.9,0.3,52.1,0c0,0-2,8.7-14.6,12.9c-0.6-0.1-1.1-0.1-1.5-0.2c4.1-1.9,7.7-5.3,8.4-6.1
			c-3.6,2.8-12.9,6.3-14.5,6.5l0,0c0,0-0.1,0.1-0.2,0.1C28.8,13.5,27.9,13.9,27,14.2z"/>
		<path class="st3" d="M34.5,13.8c-9.8,0-17.8,8.2-17.8,18.1c0,10,7.9,18.1,17.8,18.1s17.8-8.2,17.8-18.1
			C52.3,21.9,44.4,13.8,34.5,13.8z"/>
		<path class="st3" d="M15.6,31.9c0-3.6,1-7.1,2.8-9.9c-1.1-0.3-2.3-0.6-3.5-0.6c-6.7,0-12.1,5.5-12.1,12.4s5.4,12.4,12.1,12.4
			c2.1,0,4.1-0.6,5.7-1.4C17.4,41.4,15.6,36.9,15.6,31.9z M4.9,33.7v0.8V33.7C4.8,33.6,4.9,33.7,4.9,33.7z"/>
	</g>
	<path class="st4" d="M31.5,14.2"/>
	<path class="st4" d="M29.9,13.2"/>
</g>
<g>
	<path class="st3" d="M67.6,31.8c0,3.6,2.3,5.6,5,5.6s4.1-1.8,4.5-3.3l4.7,1.6c-0.9,3.3-4,6.6-9.2,6.6c-5.8,0-10.4-4.4-10.4-10.4
		c0-6.1,4.5-10.4,10.2-10.4c5.4,0,8.4,3.3,9.2,6.6L77,29.6c-0.5-1.6-1.7-3.3-4.4-3.3C69.9,26.3,67.6,28.3,67.6,31.8z"/>
	<path class="st3" d="M85.8,41.7v-29h5.3v29H85.8z"/>
	<path class="st3" d="M114.4,36c-1,3.4-4.1,6.2-9,6.2c-5.4,0-10.2-3.9-10.2-10.5c0-6.3,4.6-10.4,9.7-10.4c6.1,0,9.7,3.9,9.7,10.2
		c0,0.8-0.1,1.6-0.1,1.6h-14.1c0.1,2.6,2.3,4.5,5,4.5c2.5,0,3.8-1.2,4.5-3L114.4,36z M109.4,29.6c-0.1-2-1.4-3.9-4.4-3.9
		c-2.8,0-4.3,2.1-4.4,3.9H109.4z"/>
	<path class="st3" d="M118.9,41.7V22h5.1v2.4c1.1-1.9,3.6-3,5.8-3c2.7,0,4.8,1.2,5.8,3.3c1.6-2.4,3.6-3.3,6.2-3.3
		c3.6,0,7.1,2.2,7.1,7.5v12.8h-5.2V30c0-2.1-1-3.7-3.5-3.7c-2.3,0-3.6,1.8-3.6,3.9v11.5h-5.3V30c0-2.1-1.1-3.7-3.5-3.7
		c-2.3,0-3.7,1.7-3.7,3.9v11.5C124.1,41.7,118.9,41.7,118.9,41.7z"/>
	<path class="st3" d="M172,36c-1,3.4-4.1,6.2-9,6.2c-5.4,0-10.2-3.9-10.2-10.5c0-6.3,4.6-10.4,9.7-10.4c6.1,0,9.7,3.9,9.7,10.2
		c0,0.8-0.1,1.6-0.1,1.6H158c0.1,2.6,2.3,4.5,5,4.5c2.5,0,3.8-1.2,4.5-3L172,36z M167,29.6c-0.1-2-1.4-3.9-4.4-3.9
		c-2.8,0-4.3,2.1-4.4,3.9H167z"/>
	<path class="st3" d="M181.8,41.7h-5.3V22h5.2v2.4c1.2-2,3.6-3,5.7-3c4.9,0,7.1,3.5,7.1,7.8v12.4h-5.3V30.2c0-2.2-1.1-3.9-3.6-3.9
		c-2.3,0-3.7,1.8-3.7,4.1L181.8,41.7L181.8,41.7z"/>
	<path class="st3" d="M206.4,22h4v4.7h-4V35c0,1.7,0.8,2.3,2.3,2.3c0.6,0,1.4-0.1,1.6-0.2v4.4c-0.5,0.2-1.4,0.5-3,0.5
		c-3.8,0-6.2-2.3-6.2-6.1v-9.2h-3.6V22h1c2.1,0,3-1.4,3-3.1v-2.8h4.8L206.4,22L206.4,22z"/>
	<path class="st3" d="M217.5,12.2c1.8,0,3.3,1.5,3.3,3.3s-1.4,3.2-3.3,3.2c-1.8,0-3.3-1.5-3.3-3.2C214.2,13.7,215.7,12.2,217.5,12.2
		z M214.8,41.7V22h5.3v19.7H214.8z"/>
	<path class="st3" d="M231.2,41.7h-5.3V22h5.2v2.4c1.2-2,3.6-3,5.7-3c4.9,0,7.1,3.5,7.1,7.8v12.4h-5.3V30.2c0-2.2-1.1-3.9-3.6-3.9
		c-2.3,0-3.7,1.8-3.7,4.1L231.2,41.7L231.2,41.7z"/>
	<path class="st3" d="M266.8,36c-1,3.4-4.1,6.2-9,6.2c-5.4,0-10.2-3.9-10.2-10.5c0-6.3,4.6-10.4,9.7-10.4c6.1,0,9.7,3.9,9.7,10.2
		c0,0.8-0.1,1.6-0.1,1.6H253c0.1,2.6,2.3,4.5,5,4.5c2.5,0,3.8-1.2,4.5-3L266.8,36z M261.9,29.6c-0.1-2-1.4-3.9-4.4-3.9
		c-2.8,0-4.3,2.1-4.4,3.9H261.9z"/>
</g>
<g id="Layer_1_2_">
	<g>
		<path class="st3" d="M0.4,18.9c0,0,5-4.1,9.6,2.4C10,21.3,5,24.5,0.4,18.9"/>
		<path class="st3" d="M27,14.2C27.6,11.6,30.9,0.4,52,0.1c0,0-2,8.6-14.5,12.8c-0.6-0.1-1.1-0.1-1.5-0.2c4.1-1.9,7.7-5.3,8.3-6.1
			c-3.6,2.8-12.8,6.3-14.4,6.5c-0.1,0-0.1,0-0.2,0.1C28.8,13.5,27.9,13.9,27,14.2z"/>
		<path class="st3" d="M34.5,13.8c-9.7,0-17.7,8.1-17.7,18c0,9.9,7.9,18,17.7,18s17.7-8.1,17.7-18C52.1,21.9,44.3,13.8,34.5,13.8z
			 M25.8,19.3c-0.4,0.4-0.9,0.9-1.2,1.3c-0.2,0.2-0.3,0.4-0.6,0.7c-0.2,0.2-0.3,0.4-0.6,0.8c-0.2,0.2-0.3,0.6-0.4,0.8
			c-0.1,0.2-0.3,0.6-0.4,0.8c-0.1,0.2-0.3,0.6-0.4,0.8c-0.1,0.2-0.2,0.6-0.3,0.9c-0.2,0.6-0.4,1.1-0.7,1.8c-0.1,0.3-0.2,0.6-0.2,0.9
			c-0.1,0.3-0.1,0.6-0.2,0.9c-0.1,0.3-0.1,0.6-0.1,0.9c0,0.3-0.1,0.7-0.1,0.9l-0.1,0.7l-0.1-0.7c0-0.3-0.1-0.7-0.1-1
			c0-0.3,0-0.7-0.1-1c0-0.3,0-0.7,0-1c0-0.3,0-0.7,0.1-1c0.1-0.7,0.2-1.3,0.3-1.9c0.1-0.3,0.2-0.7,0.3-0.9c0.1-0.3,0.3-0.6,0.4-0.9
			c0.2-0.3,0.3-0.6,0.6-0.8c0.2-0.2,0.4-0.6,0.7-0.8c0.4-0.4,1-0.9,1.4-1.3c0.6-0.3,1.1-0.8,1.5-1.1c0.6-0.3,1.1-0.7,1.7-1
			C26.7,18.4,26.3,18.9,25.8,19.3z"/>
		<path class="st3" d="M15.7,31.8c0-3.6,1-7.1,2.8-9.8c-1.1-0.3-2.3-0.6-3.5-0.6c-6.7,0-12,5.5-12,12.3S8.3,46,15,46
			c2.1,0,4.1-0.6,5.7-1.4C17.5,41.3,15.7,36.8,15.7,31.8z M8.6,25.5c-0.3,0.3-0.6,0.7-0.9,1c-0.2,0.3-0.6,0.7-0.8,1.1
			c-0.2,0.3-0.4,0.8-0.7,1.1C6.1,28.8,6,29,5.9,29.2c-0.1,0.2-0.2,0.4-0.2,0.6c-0.2,0.4-0.3,0.8-0.4,1.2c-0.1,0.4-0.2,0.8-0.2,1.2
			c0,0.2,0,0.4-0.1,0.7v0.7v0.8l-0.1-0.8c0-0.1-0.1-0.3-0.1-0.6c0-0.2,0-0.4-0.1-0.7c-0.1-0.2,0-0.4,0-0.7c0-0.2,0-0.4,0-0.7
			c0-0.4,0.1-0.9,0.2-1.4C5,29.4,5,29.1,5.1,28.9s0.2-0.4,0.3-0.7c0.2-0.4,0.6-0.8,0.8-1.1c0.3-0.3,0.7-0.7,1-1
			c0.3-0.3,0.8-0.6,1.1-0.8c0.3-0.2,0.8-0.4,1.1-0.8C9.1,24.9,8.8,25.2,8.6,25.5z"/>
	</g>
	<path class="st5" d="M31.5,14.2"/>
</g>
</svg>
